# xmcd
# 
# Track frame offsets:
#     150
#     14185
#     28746
#     44884
#     56090
#     78626
#     98671
#     112885
#     132713
#     152326
#     166107
#     180469
#     200779
# 
# Disc length: 2967
# 
# Revision: 0
# Processed by: cddbd v1.5.2PL0 Copyright (c) Steve Scherf et al.
# Submitted via: fre:ac v1.0.31
# 
DISCID=b40b950d
DTITLE=Austin Cunningham - Music in the Money Biz
DYEAR=2007
DGENRE=Country
TTITLE0=Doin' Pretty Good
TTITLE1=Texas Trip
TTITLE2=Always in My Heart
TTITLE3=Music in the Money Biz
TTITLE4=Kind Heart Cruel
TTITLE5=Yankee Farm in Texas
TTITLE6=In Style Again
TTITLE7=Killin' Jesus Again
TTITLE8=Drink Milwaukee Dry
TTITLE9=The Whole Enchilada
TTITLE10=The Way You're Put Together
TTITLE11=Everything's Gonna Be Alright
TTITLE12=Lost and Weary Traveler
EXTD=
EXTT0=
EXTT1=
EXTT2=
EXTT3=
EXTT4=
EXTT5=
EXTT6=
EXTT7=
EXTT8=
EXTT9=
EXTT10=
EXTT11=
EXTT12=
PLAYORDER=
